<?xml version="1.0" encoding="UTF-8"?><svg xmlns="http://www.w3.org/2000/svg" viewBox="0 0 1500 257.4"><defs><style>.c{fill:#fff;}.d{fill:#37b9c6;}.e{fill:#e74f5c;}</style></defs><g id="a"><g><path class="d" d="M117.61,168.05H39.51V31.61c0-7.09-1.72-11.95-5.17-14.59-3.45-2.63-8.81-3.95-16.11-3.95-3.45,0-6.94,.3-10.48,.91-3.55,.61-6.13,1.12-7.75,1.52V179.3c0,6.49,1.92,11.65,5.77,15.5,3.85,3.85,8.91,5.77,15.19,5.77H107.88c4.45,0,7.95-1.47,10.48-4.41,2.53-2.93,3.8-7.14,3.8-12.61,0-3.24-.46-6.28-1.37-9.12-.91-2.83-1.98-4.96-3.19-6.38Z"/><path class="d" d="M440.8,56.53c-3.54-2.43-7.95-3.65-13.22-3.65-6.69,0-12.56,1.42-17.63,4.25-4.26,18.23-9.17,36.88-14.74,55.92-5.58,19.05-11.3,37.38-17.17,55h-1.52c-1.02-3.65-2.48-8.25-4.41-13.83-1.93-5.57-3.85-11.39-5.78-17.47-1.93-6.08-3.7-11.75-5.32-17.02l-15.19-50.14c-1.82-6.28-4.41-10.64-7.75-13.07-3.34-2.43-7.75-3.65-13.22-3.65-4.26,0-8.21,.86-11.85,2.58-3.65,1.72-6.49,3.8-8.51,6.23,1.82,7.29,4.35,15.85,7.6,25.68,3.24,9.83,6.73,20.01,10.48,30.54,3.75,10.54,7.49,20.72,11.24,30.54,3.75,9.83,7.29,18.64,10.64,26.44,3.34,7.8,6.13,13.73,8.36,17.78,1.62,3.24,4.61,5.67,8.96,7.29,4.35,1.62,9.37,2.43,15.04,2.43,4.86,0,9.37-.56,13.52-1.67,4.15-1.11,7.14-2.38,8.97-3.8,3.44-6.48,7.24-14.48,11.39-24.01,4.15-9.52,8.31-19.65,12.46-30.39,4.15-10.73,7.95-21.12,11.39-31.15,3.44-10.03,6.23-18.84,8.36-26.44s3.19-13.01,3.19-16.26c0-5.67-1.78-9.72-5.32-12.16Z"/><path class="d" d="M572.84,59.56c-10.13-5.47-21.88-8.21-35.25-8.21-9.72,0-18.89,1.57-27.5,4.71-8.61,3.14-16.26,7.8-22.94,13.98-6.69,6.18-11.96,13.98-15.8,23.4-3.85,9.42-5.77,20.41-5.77,32.97,0,17.02,3.39,31.35,10.18,43,6.79,11.65,16.21,20.41,28.26,26.29,12.05,5.87,25.98,8.81,41.78,8.81,10.13,0,19.19-1.02,27.2-3.04,8-2.02,14.33-5.01,18.99-8.96,4.66-3.95,6.99-8.56,6.99-13.83,0-3.24-.91-6.28-2.73-9.12-1.82-2.83-4.06-5.06-6.69-6.68-4.46,2.84-10.33,5.52-17.63,8.05-7.29,2.53-15.19,3.8-23.7,3.8-12.36,0-22.64-2.99-30.85-8.96-6.5-4.73-10.91-11.57-13.27-20.45l84.23-12.22c5.27-.81,9.37-2.63,12.31-5.47,2.93-2.83,4.41-7.09,4.41-12.76,0-12.35-2.84-23.29-8.51-32.82-5.67-9.52-13.58-17.02-23.7-22.49Zm-70.96,58.79c.68-11.6,4.05-20.68,10.18-27.18,6.69-7.09,15.2-10.64,25.53-10.64,9.72,0,17.22,2.79,22.49,8.36,5.27,5.58,8.21,12.11,8.81,19.6l-67.01,9.86Z"/><path class="d" d="M670.54,3.8c-3.34-2.53-8.66-3.8-15.95-3.8-3.65,0-7.04,.26-10.18,.76-3.14,.51-5.62,1.06-7.44,1.67V184.16c0,6.69,1.72,11.35,5.17,13.98,3.44,2.63,8.81,3.95,16.11,3.95,3.65,0,7.04-.3,10.18-.91,3.14-.61,5.52-1.12,7.14-1.52V17.93c0-6.89-1.67-11.6-5.01-14.13Z"/><path class="d" d="M840.71,56.53c-3.75-2.43-8.36-3.65-13.83-3.65-3.04,0-5.93,.41-8.66,1.21-2.73,.81-5.32,1.82-7.75,3.04-2.23,11.75-5.07,24.06-8.51,36.92-3.45,12.87-7.14,25.22-11.09,37.08-3.95,11.85-7.75,22.24-11.4,31.15h-1.21c-5.88-15.8-11.5-31.35-16.87-46.65-5.37-15.29-10.49-30.64-15.35-46.04-1.82-6.28-4.51-10.64-8.05-13.07-3.55-2.43-7.95-3.65-13.22-3.65-4.25,0-8.21,.86-11.85,2.58-3.65,1.72-6.48,3.8-8.51,6.23,4.45,16.21,8.91,30.84,13.37,43.91,4.45,13.07,8.76,24.61,12.92,34.64,4.15,10.03,7.85,18.39,11.09,25.07,4.05,8.71,7.8,14.69,11.24,17.93,3.44,3.24,6.89,5.37,10.33,6.38-3.24,5.47-7.14,11.24-11.7,17.32s-9.32,11.75-14.28,17.02c-4.97,5.27-9.57,9.72-13.83,13.37,.81,5.87,3.24,10.68,7.29,14.44,4.05,3.75,9.32,5.62,15.8,5.62,8.31,0,16.81-4.66,25.53-13.98,8.71-9.32,18.23-23.2,28.57-41.63,4.45-7.9,8.91-16.76,13.37-26.59,4.45-9.82,8.61-19.9,12.46-30.24,3.85-10.33,7.24-20.41,10.18-30.24,2.93-9.83,5.27-18.79,6.99-26.9,1.72-8.1,2.58-14.59,2.58-19.45,0-5.47-1.87-9.42-5.62-11.85Z"/><path class="d" d="M1038.55,59.41c-11.65-5.37-24.97-8.05-39.96-8.05-10.74,0-20.51,1.27-29.32,3.8-8.81,2.54-16.16,5.62-22.03,9.27-4.26,2.64-7.35,5.47-9.27,8.51-1.93,3.04-2.89,6.99-2.89,11.85V238.86c0,6.69,1.72,11.34,5.16,13.98,3.44,2.63,8.81,3.95,16.11,3.95,3.65,0,7.04-.3,10.18-.91,3.14-.61,5.52-1.12,7.14-1.52v-56.08c2.44,1.03,5.11,2,8.05,2.9,6.58,2.02,13.83,3.04,21.73,3.04,13.98,0,26.44-2.89,37.38-8.66,10.94-5.77,19.55-14.38,25.83-25.83,6.28-11.44,9.42-25.57,9.42-42.39s-3.34-32.01-10.03-43.15c-6.69-11.14-15.85-19.4-27.5-24.77Zm-12.31,102.72c-6.89,7.6-16.41,11.4-28.57,11.4-7.09,0-13.27-1.32-18.54-3.95-2.06-1.03-3.96-2.12-5.77-3.24V88.74c3.24-1.62,6.89-3.14,10.94-4.56,4.05-1.42,8.81-2.13,14.28-2.13,7.49,0,14.08,1.52,19.75,4.56,5.67,3.04,10.13,7.85,13.37,14.44,3.24,6.59,4.86,15.34,4.86,26.29,0,15.6-3.45,27.2-10.33,34.8Z"/><path class="d" d="M1207.36,59.56c-10.13-5.47-21.88-8.21-35.25-8.21-9.72,0-18.89,1.57-27.5,4.71-8.61,3.14-16.26,7.8-22.94,13.98-6.69,6.18-11.96,13.98-15.8,23.4-3.85,9.42-5.77,20.41-5.77,32.97,0,17.02,3.39,31.35,10.18,43,6.79,11.65,16.21,20.41,28.26,26.29,12.05,5.87,25.98,8.81,41.78,8.81,10.13,0,19.19-1.02,27.2-3.04,8-2.02,14.33-5.01,18.99-8.96,4.66-3.95,6.99-8.56,6.99-13.83,0-3.24-.91-6.28-2.73-9.12-1.82-2.83-4.06-5.06-6.69-6.68-4.46,2.84-10.33,5.52-17.63,8.05-7.29,2.53-15.19,3.8-23.7,3.8-12.36,0-22.64-2.99-30.85-8.96-6.5-4.73-10.91-11.57-13.27-20.45l84.23-12.22c5.27-.81,9.37-2.63,12.31-5.47,2.93-2.83,4.41-7.09,4.41-12.76,0-12.35-2.84-23.29-8.51-32.82-5.67-9.52-13.58-17.02-23.7-22.49Zm-70.96,58.79c.68-11.6,4.05-20.68,10.18-27.18,6.69-7.09,15.2-10.64,25.53-10.64,9.72,0,17.22,2.79,22.49,8.36,5.27,5.58,8.21,12.11,8.81,19.6l-67.01,9.86Z"/><path class="d" d="M1308.25,119.73v-30.69h35.25c4.26,0,7.55-1.22,9.88-3.65,2.33-2.43,3.49-6.28,3.49-11.55,0-3.24-.41-6.18-1.22-8.81-.81-2.63-1.72-4.66-2.73-6.08h-44.67v-25.22c0-6.68-1.67-11.34-5.01-13.98-3.34-2.63-8.56-3.95-15.65-3.95-3.65,0-7.04,.3-10.18,.91-3.14,.61-5.52,1.12-7.14,1.52V157.72c0,16.61,4.61,28.52,13.83,35.71,9.22,7.19,21.83,10.79,37.83,10.79,12.16,0,20.97-1.98,26.44-5.93,5.47-3.95,8.21-8.96,8.21-15.04,0-3.04-.56-5.77-1.67-8.21-1.12-2.43-2.48-4.45-4.1-6.08-2.64,1.21-5.83,2.28-9.57,3.19-3.75,.91-7.25,1.37-10.49,1.37-6.89,0-12.36-1.42-16.41-4.26-4.05-2.83-6.08-7.49-6.08-13.98v-35.55Z"/><path class="d" d="M1488.6,130.22c-7.6-7.39-19.81-13.01-36.62-16.87l-14.89-3.65c-6.28-1.42-10.69-3.29-13.22-5.62-2.53-2.33-3.8-5.11-3.8-8.36,0-4.86,2.28-8.51,6.84-10.94,4.56-2.43,10.68-3.65,18.39-3.65,5.06,0,10.23,.61,15.5,1.82,5.27,1.22,10.08,2.64,14.44,4.26,4.35,1.62,7.65,3.24,9.88,4.86,2.43-1.82,4.41-4.1,5.93-6.84,1.52-2.73,2.28-5.93,2.28-9.57,0-5.06-2.23-9.42-6.69-13.07-4.46-3.65-10.49-6.43-18.08-8.36-7.6-1.92-16.26-2.89-25.98-2.89-19.05,0-33.84,4.1-44.37,12.31-10.54,8.21-15.8,18.89-15.8,32.06,0,11.55,3.59,20.82,10.79,27.81,7.19,6.99,18.28,12.11,33.27,15.35l17.02,3.95c6.28,1.42,10.89,3.45,13.83,6.08,2.93,2.64,4.41,6.08,4.41,10.33,0,10.33-8.41,15.5-25.22,15.5-9.72,0-18.29-1.47-25.68-4.41-7.4-2.93-13.93-6.12-19.6-9.57-2.84,1.82-5.12,4.15-6.84,6.99-1.72,2.84-2.58,6.18-2.58,10.03,0,8.11,5.21,14.59,15.65,19.45,10.43,4.86,23.86,7.29,40.27,7.29,20.26,0,35.71-4,46.34-12s15.95-19.09,15.95-33.28c0-11.95-3.8-21.62-11.4-29.02Z"/></g><path class="e" d="M268.15,48.69c-30.03-19.33-67.77,1.83-75.15,28.48-11.69-12.42-44.64-25.44-73.11,.66-21.03,19.28-25.42,77.78,36.22,109.84,12.87,6.7,58.86,20.74,69.97,27.17,5.55-9.93,36.19-37.11,52.88-62.22,15.22-22.9,32.04-76.34-10.81-103.93Zm-59.73,51.43c4.48-1.16,9.37,2.77,10.92,8.77s-.83,11.8-5.31,12.95-9.37-2.77-10.92-8.77,.83-11.8,5.31-12.95Zm-20.07,4.66c4.48-1.16,9.37,2.77,10.92,8.77,1.55,6-.83,11.8-5.31,12.95-4.48,1.16-9.37-2.77-10.92-8.77s.83-11.8,5.31-12.95Zm-4.18,42.8c-4.48,1.16-9.37-2.77-10.92-8.77s.83-11.8,5.31-12.95c4.48-1.16,9.37,2.77,10.92,8.77s-.83,11.8-5.31,12.95Zm48.07,9.73c-5.6,5.82-10.48,.49-18.22,2.48-5.58,1.44-13.57,13.91-21.81,6.34-5.73-5.26-4.13-13.78,.28-19.86,5.53-7.64,6.8-18.03,13.06-19.32,8.65-1.78,9.89,6.09,20.59,10.71,5.83,2.52,13.79,11.67,6.11,19.65Zm1.58-23.38c-4.48,1.16-9.37-2.77-10.92-8.77s.83-11.8,5.31-12.95c4.48-1.16,9.37,2.77,10.92,8.77,1.55,6-.83,11.8-5.31,12.95Z"/></g><g id="b"><g><g><path class="c" d="M117.61,168.05H39.51V31.61c0-7.09-1.72-11.95-5.17-14.59-3.45-2.63-8.81-3.95-16.11-3.95-3.45,0-6.94,.3-10.48,.91-3.55,.61-6.13,1.12-7.75,1.52V179.3c0,6.49,1.92,11.65,5.77,15.5,3.85,3.85,8.91,5.77,15.19,5.77H107.88c4.45,0,7.95-1.47,10.48-4.41,2.53-2.93,3.8-7.14,3.8-12.61,0-3.24-.46-6.28-1.37-9.12-.91-2.83-1.98-4.96-3.19-6.38Z"/><path class="c" d="M440.8,56.53c-3.54-2.43-7.95-3.65-13.22-3.65-6.69,0-12.56,1.42-17.63,4.25-4.26,18.23-9.17,36.88-14.74,55.92-5.58,19.05-11.3,37.38-17.17,55h-1.52c-1.02-3.65-2.48-8.25-4.41-13.83-1.93-5.57-3.85-11.39-5.78-17.47-1.93-6.08-3.7-11.75-5.32-17.02l-15.19-50.14c-1.82-6.28-4.41-10.64-7.75-13.07-3.34-2.43-7.75-3.65-13.22-3.65-4.26,0-8.21,.86-11.85,2.58-3.65,1.72-6.49,3.8-8.51,6.23,1.82,7.29,4.35,15.85,7.6,25.68,3.24,9.83,6.73,20.01,10.48,30.54,3.75,10.54,7.49,20.72,11.24,30.54,3.75,9.83,7.29,18.64,10.64,26.44,3.34,7.8,6.13,13.73,8.36,17.78,1.62,3.24,4.61,5.67,8.96,7.29,4.35,1.62,9.37,2.43,15.04,2.43,4.86,0,9.37-.56,13.52-1.67,4.15-1.11,7.14-2.38,8.97-3.8,3.44-6.48,7.24-14.48,11.39-24.01,4.15-9.52,8.31-19.65,12.46-30.39,4.15-10.73,7.95-21.12,11.39-31.15,3.44-10.03,6.23-18.84,8.36-26.44,2.13-7.6,3.19-13.01,3.19-16.26,0-5.67-1.78-9.72-5.32-12.16Z"/><path class="c" d="M572.84,59.56c-10.13-5.47-21.88-8.21-35.25-8.21-9.72,0-18.89,1.57-27.5,4.71-8.61,3.14-16.26,7.8-22.94,13.98-6.69,6.18-11.96,13.98-15.8,23.4-3.85,9.42-5.77,20.41-5.77,32.97,0,17.02,3.39,31.35,10.18,43,6.79,11.65,16.21,20.41,28.26,26.29,12.05,5.87,25.98,8.81,41.78,8.81,10.13,0,19.19-1.02,27.2-3.04,8-2.02,14.33-5.01,18.99-8.96,4.66-3.95,6.99-8.56,6.99-13.83,0-3.24-.91-6.28-2.73-9.12-1.82-2.83-4.06-5.06-6.69-6.68-4.46,2.84-10.33,5.52-17.63,8.05-7.29,2.53-15.19,3.8-23.7,3.8-12.36,0-22.64-2.99-30.85-8.96-6.5-4.73-10.91-11.57-13.27-20.45l84.23-12.22c5.27-.81,9.37-2.63,12.31-5.47,2.93-2.83,4.41-7.09,4.41-12.76,0-12.35-2.84-23.29-8.51-32.82-5.67-9.52-13.58-17.02-23.7-22.49Zm-70.96,58.79c.68-11.6,4.05-20.68,10.18-27.18,6.69-7.09,15.2-10.64,25.53-10.64,9.72,0,17.22,2.79,22.49,8.36,5.27,5.58,8.21,12.11,8.81,19.6l-67.01,9.86Z"/><path class="c" d="M670.54,3.8c-3.34-2.53-8.66-3.8-15.95-3.8-3.65,0-7.04,.26-10.18,.76-3.14,.51-5.62,1.06-7.44,1.67V184.16c0,6.69,1.72,11.35,5.17,13.98,3.44,2.63,8.81,3.95,16.11,3.95,3.65,0,7.04-.3,10.18-.91,3.14-.61,5.52-1.12,7.14-1.52V17.93c0-6.89-1.67-11.6-5.01-14.13Z"/><path class="c" d="M840.71,56.53c-3.75-2.43-8.36-3.65-13.83-3.65-3.04,0-5.93,.41-8.66,1.21-2.73,.81-5.32,1.82-7.75,3.04-2.23,11.75-5.07,24.06-8.51,36.92-3.45,12.87-7.14,25.22-11.09,37.08-3.95,11.85-7.75,22.24-11.4,31.15h-1.21c-5.88-15.8-11.5-31.35-16.87-46.65-5.37-15.29-10.49-30.64-15.35-46.04-1.82-6.28-4.51-10.64-8.05-13.07-3.55-2.43-7.95-3.65-13.22-3.65-4.25,0-8.21,.86-11.85,2.58-3.65,1.72-6.48,3.8-8.51,6.23,4.45,16.21,8.91,30.84,13.37,43.91,4.45,13.07,8.76,24.61,12.92,34.64,4.15,10.03,7.85,18.39,11.09,25.07,4.05,8.71,7.8,14.69,11.24,17.93,3.44,3.24,6.89,5.37,10.33,6.38-3.24,5.47-7.14,11.24-11.7,17.32-4.56,6.08-9.32,11.75-14.28,17.02-4.97,5.27-9.57,9.72-13.83,13.37,.81,5.87,3.24,10.68,7.29,14.44,4.05,3.75,9.32,5.62,15.8,5.62,8.31,0,16.81-4.66,25.53-13.98,8.71-9.32,18.23-23.2,28.57-41.63,4.45-7.9,8.91-16.76,13.37-26.59,4.45-9.82,8.61-19.9,12.46-30.24,3.85-10.33,7.24-20.41,10.18-30.24,2.93-9.83,5.27-18.79,6.99-26.9,1.72-8.1,2.58-14.59,2.58-19.45,0-5.47-1.87-9.42-5.62-11.85Z"/><path class="c" d="M1038.55,59.41c-11.65-5.37-24.97-8.05-39.96-8.05-10.74,0-20.51,1.27-29.32,3.8-8.81,2.54-16.16,5.62-22.03,9.27-4.26,2.64-7.35,5.47-9.27,8.51-1.93,3.04-2.89,6.99-2.89,11.85V238.86c0,6.69,1.72,11.34,5.16,13.98,3.44,2.63,8.81,3.95,16.11,3.95,3.65,0,7.04-.3,10.18-.91,3.14-.61,5.52-1.12,7.14-1.52v-56.08c2.44,1.03,5.11,2,8.05,2.9,6.58,2.02,13.83,3.04,21.73,3.04,13.98,0,26.44-2.89,37.38-8.66,10.94-5.77,19.55-14.38,25.83-25.83,6.28-11.44,9.42-25.57,9.42-42.39s-3.34-32.01-10.03-43.15c-6.69-11.14-15.85-19.4-27.5-24.77Zm-12.31,102.72c-6.89,7.6-16.41,11.4-28.57,11.4-7.09,0-13.27-1.32-18.54-3.95-2.06-1.03-3.96-2.12-5.77-3.24V88.74c3.24-1.62,6.89-3.14,10.94-4.56,4.05-1.42,8.81-2.13,14.28-2.13,7.49,0,14.08,1.52,19.75,4.56,5.67,3.04,10.13,7.85,13.37,14.44,3.24,6.59,4.86,15.34,4.86,26.29,0,15.6-3.45,27.2-10.33,34.8Z"/><path class="c" d="M1207.36,59.56c-10.13-5.47-21.88-8.21-35.25-8.21-9.72,0-18.89,1.57-27.5,4.71-8.61,3.14-16.26,7.8-22.94,13.98-6.69,6.18-11.96,13.98-15.8,23.4-3.85,9.42-5.77,20.41-5.77,32.97,0,17.02,3.39,31.35,10.18,43,6.79,11.65,16.21,20.41,28.26,26.29,12.05,5.87,25.98,8.81,41.78,8.81,10.13,0,19.19-1.02,27.2-3.04,8-2.02,14.33-5.01,18.99-8.96,4.66-3.95,6.99-8.56,6.99-13.83,0-3.24-.91-6.28-2.73-9.12-1.82-2.83-4.06-5.06-6.69-6.68-4.46,2.84-10.33,5.52-17.63,8.05-7.29,2.53-15.19,3.8-23.7,3.8-12.36,0-22.64-2.99-30.85-8.96-6.5-4.73-10.91-11.57-13.27-20.45l84.23-12.22c5.27-.81,9.37-2.63,12.31-5.47,2.93-2.83,4.41-7.09,4.41-12.76,0-12.35-2.84-23.29-8.51-32.82-5.67-9.52-13.58-17.02-23.7-22.49Zm-70.96,58.79c.68-11.6,4.05-20.68,10.18-27.18,6.69-7.09,15.2-10.64,25.53-10.64,9.72,0,17.22,2.79,22.49,8.36,5.27,5.58,8.21,12.11,8.81,19.6l-67.01,9.86Z"/><path class="c" d="M1308.25,119.73v-30.69h35.25c4.26,0,7.55-1.22,9.88-3.65,2.33-2.43,3.49-6.28,3.49-11.55,0-3.24-.41-6.18-1.22-8.81-.81-2.63-1.72-4.66-2.73-6.08h-44.67v-25.22c0-6.68-1.67-11.34-5.01-13.98-3.34-2.63-8.56-3.95-15.65-3.95-3.65,0-7.04,.3-10.18,.91-3.14,.61-5.52,1.12-7.14,1.52V157.72c0,16.61,4.61,28.52,13.83,35.71,9.22,7.19,21.83,10.79,37.83,10.79,12.16,0,20.97-1.98,26.44-5.93,5.47-3.95,8.21-8.96,8.21-15.04,0-3.04-.56-5.77-1.67-8.21-1.12-2.43-2.48-4.45-4.1-6.08-2.64,1.21-5.83,2.28-9.57,3.19-3.75,.91-7.25,1.37-10.49,1.37-6.89,0-12.36-1.42-16.41-4.26-4.05-2.83-6.08-7.49-6.08-13.98v-35.55Z"/><path class="c" d="M1488.6,130.22c-7.6-7.39-19.81-13.01-36.62-16.87l-14.89-3.65c-6.28-1.42-10.69-3.29-13.22-5.62-2.53-2.33-3.8-5.11-3.8-8.36,0-4.86,2.28-8.51,6.84-10.94,4.56-2.43,10.68-3.65,18.39-3.65,5.06,0,10.23,.61,15.5,1.82,5.27,1.22,10.08,2.64,14.44,4.26,4.35,1.62,7.65,3.24,9.88,4.86,2.43-1.82,4.41-4.1,5.93-6.84,1.52-2.73,2.28-5.93,2.28-9.57,0-5.06-2.23-9.42-6.69-13.07-4.46-3.65-10.49-6.43-18.08-8.36-7.6-1.92-16.26-2.89-25.98-2.89-19.05,0-33.84,4.1-44.37,12.31-10.54,8.21-15.8,18.89-15.8,32.06,0,11.55,3.59,20.82,10.79,27.81,7.19,6.99,18.28,12.11,33.27,15.35l17.02,3.95c6.28,1.42,10.89,3.45,13.83,6.08,2.93,2.64,4.41,6.08,4.41,10.33,0,10.33-8.41,15.5-25.22,15.5-9.72,0-18.29-1.47-25.68-4.41-7.4-2.93-13.93-6.12-19.6-9.57-2.84,1.82-5.12,4.15-6.84,6.99-1.72,2.84-2.58,6.18-2.58,10.03,0,8.11,5.21,14.59,15.65,19.45,10.43,4.86,23.86,7.29,40.27,7.29,20.26,0,35.71-4,46.34-12,10.64-8,15.95-19.09,15.95-33.28,0-11.95-3.8-21.62-11.4-29.02Z"/></g><path class="c" d="M268.15,48.69c-30.03-19.33-67.77,1.83-75.15,28.48-11.69-12.42-44.64-25.44-73.11,.66-21.03,19.28-25.42,77.78,36.22,109.84,12.87,6.7,58.86,20.74,69.97,27.17,5.55-9.93,36.19-37.11,52.88-62.22,15.22-22.9,32.04-76.34-10.81-103.93Zm-59.73,51.43c4.48-1.16,9.37,2.77,10.92,8.77,1.55,6-.83,11.8-5.31,12.95-4.48,1.16-9.37-2.77-10.92-8.77-1.55-6,.83-11.8,5.31-12.95Zm-20.07,4.66c4.48-1.16,9.37,2.77,10.92,8.77,1.55,6-.83,11.8-5.31,12.95-4.48,1.16-9.37-2.77-10.92-8.77s.83-11.8,5.31-12.95Zm-4.18,42.8c-4.48,1.16-9.37-2.77-10.92-8.77-1.55-6,.83-11.8,5.31-12.95,4.48-1.16,9.37,2.77,10.92,8.77,1.55,6-.83,11.8-5.31,12.95Zm48.07,9.73c-5.6,5.82-10.48,.49-18.22,2.48-5.58,1.44-13.57,13.91-21.81,6.34-5.73-5.26-4.13-13.78,.28-19.86,5.53-7.64,6.8-18.03,13.06-19.32,8.65-1.78,9.89,6.09,20.59,10.71,5.83,2.52,13.79,11.67,6.11,19.65Zm1.58-23.38c-4.48,1.16-9.37-2.77-10.92-8.77-1.55-6,.83-11.8,5.31-12.95,4.48-1.16,9.37,2.77,10.92,8.77,1.55,6-.83,11.8-5.31,12.95Z"/></g></g></svg>