<?xml version="1.0" encoding="utf-8"?>
<!-- Generator: Adobe Illustrator 26.2.1, SVG Export Plug-In . SVG Version: 6.00 Build 0)  -->
<svg version="1.1" id="a" xmlns="http://www.w3.org/2000/svg" xmlns:xlink="http://www.w3.org/1999/xlink" x="0px" y="0px"
	 viewBox="0 0 1078.7 988" style="enable-background:new 0 0 1078.7 988;" xml:space="preserve">
<style type="text/css">
	.st0{fill:#FFFFFF;}
</style>
<path class="st0" d="M923.7,42.6C752.8-67.4,538.1,53,496.1,204.7c-66.5-70.6-254-144.7-416,3.7C-39.5,318.1-64.4,651,286.3,833.4
	c73.2,38.1,334.9,118,398.1,154.6c31.6-56.5,205.9-211.2,300.8-354C1071.8,503.6,1167.5,199.6,923.7,42.6L923.7,42.6z M583.9,335.2
	c25.5-6.6,53.3,15.8,62.1,49.9c8.8,34.1-4.7,67.1-30.2,73.7c-25.5,6.6-53.3-15.8-62.1-49.9C544.8,374.8,558.4,341.8,583.9,335.2z
	 M469.7,361.7c25.5-6.6,53.3,15.8,62.1,49.9c8.8,34.1-4.7,67.1-30.2,73.7c-25.5,6.6-53.3-15.8-62.1-49.9
	C430.6,401.3,444.2,368.3,469.7,361.7L469.7,361.7z M445.9,605.3c-25.5,6.6-53.3-15.8-62.1-49.9c-8.8-34.1,4.7-67.1,30.2-73.7
	c25.5-6.6,53.3,15.8,62.1,49.9C484.9,565.7,471.4,598.7,445.9,605.3z M719.4,660.6c-31.8,33.1-59.7,2.8-103.7,14.1
	c-31.7,8.2-77.2,79.1-124.1,36.1c-32.6-29.9-23.5-78.4,1.6-113c31.5-43.5,38.7-102.6,74.3-109.9c49.2-10.1,56.3,34.6,117.1,61
	C717.8,563.2,763.1,615.3,719.4,660.6L719.4,660.6z M728.4,527.6c-25.5,6.6-53.3-15.8-62.1-49.9c-8.8-34.1,4.7-67.1,30.2-73.7
	c25.5-6.6,53.3,15.8,62.1,49.9C767.4,488.1,753.9,521.1,728.4,527.6z"/>
</svg>
