<?xml version="1.0" encoding="UTF-8"?><svg id="a" xmlns="http://www.w3.org/2000/svg" viewBox="0 0 1080 1080"><defs><style>.b{fill:#fff;}</style></defs><path class="b" d="M540,0C241.77,0,0,241.76,0,540H0c0,298.24,241.77,540,540,540s540-241.76,540-540h0C1080,241.76,838.24,0,540,0Zm294.31,662.08c-1.44,31.51-6.45,53.03-13.76,71.87-7.57,19.47-17.69,35.98-34.15,52.44-16.46,16.46-32.97,26.58-52.45,34.15-18.83,7.31-40.35,12.32-71.87,13.76-31.58,1.44-41.66,1.78-122.08,1.78s-90.49-.34-122.07-1.78c-31.51-1.44-53.04-6.45-71.87-13.76-19.47-7.57-35.98-17.69-52.44-34.15-16.46-16.46-26.59-32.98-34.15-52.44-7.32-18.84-12.33-40.36-13.76-71.87-1.44-31.58-1.78-41.66-1.78-122.07s.34-90.49,1.78-122.08c1.43-31.51,6.44-53.03,13.76-71.87,7.56-19.47,17.69-35.99,34.15-52.45s32.97-26.59,52.44-34.15c18.83-7.32,40.36-12.33,71.87-13.76,31.58-1.44,41.66-1.78,122.07-1.78s90.49,.35,122.08,1.78c31.51,1.44,53.03,6.45,71.87,13.76,19.47,7.56,35.99,17.69,52.45,34.15s26.59,32.98,34.15,52.45c7.32,18.83,12.33,40.35,13.76,71.87,1.44,31.58,1.78,41.66,1.78,122.08s-.34,90.49-1.78,122.07Z"/><path class="b" d="M770.81,365.38c-5.37-13.82-11.78-23.68-22.15-34.04-10.36-10.36-20.22-16.77-34.04-22.14-10.44-4.06-26.12-8.88-54.98-10.2-31.22-1.43-40.58-1.73-119.64-1.73s-88.42,.3-119.64,1.73c-28.86,1.31-44.54,6.14-54.97,10.2-13.82,5.37-23.68,11.78-34.05,22.14-10.36,10.37-16.78,20.22-22.15,34.04-4.05,10.44-8.88,26.11-10.2,54.98-1.42,31.22-1.72,40.58-1.72,119.64s.3,88.42,1.72,119.64c1.32,28.87,6.15,44.55,10.2,54.98,5.37,13.82,11.79,23.69,22.15,34.05,10.36,10.36,20.22,16.77,34.05,22.15,10.43,4.06,26.11,8.88,54.97,10.2,31.22,1.42,40.58,1.72,119.64,1.72s88.42-.3,119.64-1.72c28.86-1.32,44.54-6.14,54.98-10.2,13.82-5.37,23.68-11.79,34.04-22.15,10.37-10.36,16.78-20.22,22.15-34.05,4.06-10.43,8.88-26.11,10.2-54.98,1.42-31.22,1.73-40.58,1.73-119.64s-.31-88.42-1.73-119.64c-1.32-28.87-6.14-44.54-10.2-54.98Zm-230.81,326.67c-83.97,0-152.04-68.07-152.04-152.04s68.08-152.04,152.04-152.04,152.04,68.07,152.04,152.04-68.07,152.04-152.04,152.04Zm158.05-274.56c-19.63,0-35.53-15.91-35.53-35.53s15.91-35.53,35.53-35.53,35.53,15.91,35.53,35.53-15.91,35.53-35.53,35.53Z"/><path class="b" d="M540,441.31c-54.51,0-98.69,44.19-98.69,98.7s44.18,98.69,98.69,98.69,98.69-44.19,98.69-98.69-44.18-98.7-98.69-98.7Z"/></svg>