<?xml version="1.0" encoding="UTF-8"?><svg id="a" xmlns="http://www.w3.org/2000/svg" viewBox="0 0 1080 1080"><defs><style>.b{fill:#fff;}</style></defs><path class="b" d="M540,0C241.77,0,0,241.76,0,540H0c0,298.24,241.77,540,540,540s540-241.76,540-540h0C1080,241.76,838.24,0,540,0Zm228.81,422.63c7.46,166.05-116.37,351.18-335.56,351.18-66.66,0-128.71-19.55-180.96-53.05,62.63,7.4,125.16-9.97,174.78-48.88-51.67-.96-95.28-35.07-110.27-81.99,18.47,3.54,36.67,2.51,53.29-2.01-56.77-11.41-95.96-62.56-94.69-117.26,15.91,8.84,34.13,14.17,53.5,14.78-52.58-35.13-67.47-104.55-36.54-157.63,58.21,71.44,145.2,118.44,243.32,123.36-17.2-73.85,38.8-144.95,114.99-144.95,33.97,0,64.65,14.33,86.19,37.27,26.87-5.3,52.14-15.13,74.95-28.66-8.81,27.59-27.53,50.73-51.89,65.31,23.86-2.84,46.62-9.19,67.8-18.58-15.83,23.7-35.85,44.48-58.9,61.11Z"/></svg>