<?xml version="1.0" encoding="UTF-8"?><svg id="a" xmlns="http://www.w3.org/2000/svg" viewBox="0 0 1078.66 987.97"><defs><style>.b{fill:#e74f5c;}</style></defs><path class="b" d="M923.7,42.63c-170.85-109.99-385.62,10.39-427.59,162.06-66.49-70.64-254-144.72-415.95,3.74-119.67,109.7-144.61,442.55,206.11,624.97,73.24,38.1,334.92,118.01,398.09,154.58,31.58-56.51,205.92-211.15,300.85-354.04,86.57-130.3,182.28-434.37-61.5-591.31Zm-339.84,292.61c25.5-6.58,53.3,15.76,62.11,49.88,8.81,34.13-4.73,67.13-30.22,73.71-25.5,6.58-53.3-15.76-62.11-49.88-8.81-34.13,4.73-67.13,30.22-73.71Zm-114.19,26.5c25.5-6.58,53.3,15.76,62.11,49.88,8.81,34.13-4.73,67.13-30.22,73.71-25.5,6.58-53.3-15.76-62.11-49.88-8.81-34.13,4.73-67.13,30.22-73.71Zm-23.78,243.55c-25.5,6.58-53.3-15.76-62.11-49.88-8.81-34.13,4.73-67.13,30.22-73.71,25.5-6.58,53.3,15.76,62.11,49.88,8.81,34.13-4.73,67.13-30.22,73.71Zm273.52,55.36c-31.85,33.11-59.66,2.77-103.68,14.13-31.74,8.19-77.21,79.12-124.1,36.07-32.61-29.94-23.49-78.4,1.58-113.03,31.48-43.48,38.68-102.6,74.31-109.94,49.19-10.13,56.28,34.63,117.13,60.96,33.16,14.35,78.44,66.42,34.77,111.81Zm9-133c-25.5,6.58-53.3-15.76-62.11-49.88-8.81-34.13,4.73-67.13,30.22-73.71,25.5-6.58,53.3,15.76,62.11,49.88,8.81,34.13-4.73,67.13-30.22,73.71Z"/></svg>