<?xml version="1.0" encoding="UTF-8"?><svg id="a" xmlns="http://www.w3.org/2000/svg" viewBox="0 0 1078.66 987.97"><defs><style>.b{fill:#b9a082;}</style></defs><path class="b" d="M306.51,0L822.13,644.52l-17.66-7.95-6.18,11.48-15.01,8.83,7.06,5.3-9.71,18.54h19.42l-10.59,15.89,39.73,20.31-54.74,16.78,8.83,23.84-14.13,3.53,7.06,21.19-12.36,15.01,13.24,4.41-5.3,11.48,19.42,11.48-15.01,7.95,18.54,6.18s-8.83,34.43-24.72,37.08l17.66,5.3,3.53,15.01,17.66,4.41-31.78,22.07,15.01,18.54-7.95,5.3s-.88,25.6-21.19,41.5L170.54,231.32l18.54-10.59-9.71-12.36,21.19-15.89,.88-7.95,13.24-7.06,3.53-21.19h7.95l-9.71-36.2,22.96,28.25,3.53-29.14,26.49-18.54-6.18-10.59h15.01l1.77-25.6,9.71-11.48-8.83-27.37,21.19-1.77,4.41-23.84Z"/></svg>